<svg xmlns="http://www.w3.org/2000/svg" width="180.489" height="32.079" viewBox="0 0 180.489 32.079">
  <path id="Path_1" data-name="Path 1" d="M2.172-3.114a12.8,12.8,0,0,1-.724,4.96C.471,4.345-1.7,5.612-4.6,5.612v.579c3.44,0,5.54-1.593,6.59-3.91a12.072,12.072,0,0,0,.833-4.815V-25.707H2.172Zm3.91-9.74A12.759,12.759,0,0,0,18.936.181,12.767,12.767,0,0,0,31.825-12.853,12.767,12.767,0,0,0,18.936-25.888,12.759,12.759,0,0,0,6.083-12.853Zm.652,0a12.2,12.2,0,0,1,12.2-12.455A12.2,12.2,0,0,1,31.174-12.853,12.2,12.2,0,0,1,18.936-.4,12.2,12.2,0,0,1,6.734-12.853ZM35.446,0H36.1V-25.707h-.652ZM56.482-.579c.217.362.579.76.978.76s.688-.253.688-1.122V-25.707H57.5V-1.629c0,.579,0,1.014-.145,1.014-.181,0-.616-.905-1.412-2.209L42.47-25.127c-.217-.362-.616-.76-.941-.76-.434,0-.724.253-.724,1.231V0h.652V-24.077c0-.579,0-1.014.109-1.014.181,0,.652.905,1.448,2.209ZM72.2,0V-9.7h8.762c4.272,0,6.372,2.39,6.372,6.264V0h.652V-3.548c0-3.729-1.738-5.9-5-6.445,2.462-.652,5.431-2.426,5.431-7.857,0-5.648-3.874-7.857-8.979-7.857H71.544V0Zm0-25.127H79.22c6.445,0,8.545,3.44,8.545,7.422,0,4.381-2.571,7.422-6.771,7.422H72.2ZM91.131-12.853A12.759,12.759,0,0,0,103.985.181a12.767,12.767,0,0,0,12.889-13.034,12.767,12.767,0,0,0-12.889-13.034A12.759,12.759,0,0,0,91.131-12.853Zm.652,0a12.2,12.2,0,0,1,12.2-12.455,12.2,12.2,0,0,1,12.238,12.455A12.2,12.2,0,0,1,103.985-.4,12.2,12.2,0,0,1,91.783-12.853Zm27.625,0A12.759,12.759,0,0,0,132.262.181a12.767,12.767,0,0,0,12.889-13.034,12.767,12.767,0,0,0-12.889-13.034A12.759,12.759,0,0,0,119.409-12.853Zm.652,0a12.2,12.2,0,0,1,12.2-12.455A12.2,12.2,0,0,1,144.5-12.853,12.2,12.2,0,0,1,132.262-.4,12.2,12.2,0,0,1,120.06-12.853Zm32.4-12.274c-.181-.471-.507-.76-.8-.76s-.688.29-.833,1.014L145.875,0h.652l4.526-22.738c.29-1.521.471-2.353.616-2.353a10.189,10.189,0,0,1,1.05,2.353l7.422,17.669c.181.471.4.724.724.724s.471-.253.688-.724l7.459-17.669a10.187,10.187,0,0,1,1.05-2.353c.145,0,.253.869.579,2.39L175.2,0h.688l-5.069-25.127c-.109-.579-.471-.76-.724-.76-.326,0-.616.29-.941,1.086L161.7-6.988c-.579,1.412-.688,1.81-.833,1.81s-.253-.4-.833-1.81Z" transform="translate(4.598 25.888)" fill="#fff"/>
</svg>
