<svg xmlns="http://www.w3.org/2000/svg" width="227.324" height="94.162" viewBox="0 0 227.324 94.162">
  <g id="Group_2" data-name="Group 2" transform="translate(-323.625 -418.963)">
    <path id="Path_1" data-name="Path 1" d="M406.941,437.574a46.081,46.081,0,1,0,0,56.939" fill="none" stroke="#fff" stroke-miterlimit="10" stroke-width="2"/>
    <g id="Group_1" data-name="Group 1">
      <path id="Path_2" data-name="Path 2" d="M411.5,444.859v24.289h20.367V444.859h1.385v40.387h-1.385v-14.6H411.5v14.6h-1.385V444.859Z" fill="#fff"/>
      <path id="Path_3" data-name="Path 3" d="M446.318,484.092a13.467,13.467,0,0,1-4.9-4.615,11.471,11.471,0,0,1-1.817-6.232V444.859h1.384v28.386a10.032,10.032,0,0,0,1.644,5.51,12.318,12.318,0,0,0,4.414,4.126,11.9,11.9,0,0,0,11.771,0,12.315,12.315,0,0,0,4.413-4.126,10.032,10.032,0,0,0,1.644-5.51V444.859h1.385v28.386a11.479,11.479,0,0,1-1.817,6.232,13.547,13.547,0,0,1-4.875,4.615,13.528,13.528,0,0,1-13.242,0Z" fill="#fff"/>
      <path id="Path_4" data-name="Path 4" d="M473.982,444.859v39h17.367v1.385H472.6V444.859Z" fill="#fff"/>
      <path id="Path_5" data-name="Path 5" d="M514.109,447.6a20.317,20.317,0,0,1,7.443,7.442,19.881,19.881,0,0,1,2.741,10.184,19.532,19.532,0,0,1-2.712,10.126,19.776,19.776,0,0,1-7.385,7.24,20.552,20.552,0,0,1-10.328,2.654h-6.75V444.859h6.75A19.981,19.981,0,0,1,514.109,447.6Zm-.721,33.781a18.644,18.644,0,0,0,6.866-6.751,18.063,18.063,0,0,0,2.539-9.4,18.532,18.532,0,0,0-2.539-9.492,18.978,18.978,0,0,0-6.924-6.922,18.509,18.509,0,0,0-9.519-2.569H498.5v37.618h5.308A18.911,18.911,0,0,0,513.388,481.381Z" fill="#fff"/>
      <path id="Path_6" data-name="Path 6" d="M550.949,485.246h-1.5l-2.307-7.212h-18.29l-2.25,7.212h-1.443L538.083,443.7ZM538.083,448.32l-8.712,28.272h17.366Z" fill="#fff"/>
    </g>
    <path id="Path_7" data-name="Path 7" d="M370.97,447.85a18.195,18.195,0,1,0,18.2,18.19A18.2,18.2,0,0,0,370.97,447.85Zm9.92,21.87-1.81,3.1-7.17-5.05.81,8.73h-3.68l.84-8.73-7.2,5.05-1.84-3.1,7.98-3.73-7.98-3.71,1.84-3.13,7.2,5.05-.84-8.73h3.68l-.81,8.73,7.17-5.05,1.81,3.13-7.95,3.71Z" fill="#ffd400"/>
  </g>
</svg>
