<svg xmlns="http://www.w3.org/2000/svg" width="227.324" height="94.162" viewBox="0 0 227.324 94.162">
  <g id="Group_3" data-name="Group 3" transform="translate(-323.625 -418.963)">
    <path id="Path_1" data-name="Path 1" d="M406.941,437.574a46.081,46.081,0,1,0,0,56.939" fill="none" stroke="#fff" stroke-miterlimit="10" stroke-width="2"/>
    <g id="Group_1" data-name="Group 1">
      <path id="Path_2" data-name="Path 2" d="M411.5,444.859v24.289h20.367V444.859h1.385v40.387h-1.385v-14.6H411.5v14.6h-1.385V444.859Z" fill="#fff"/>
      <path id="Path_3" data-name="Path 3" d="M446.318,484.092a13.467,13.467,0,0,1-4.9-4.615,11.471,11.471,0,0,1-1.817-6.232V444.859h1.384v28.386a10.032,10.032,0,0,0,1.644,5.51,12.318,12.318,0,0,0,4.414,4.126,11.9,11.9,0,0,0,11.771,0,12.315,12.315,0,0,0,4.413-4.126,10.032,10.032,0,0,0,1.644-5.51V444.859h1.385v28.386a11.479,11.479,0,0,1-1.817,6.232,13.547,13.547,0,0,1-4.875,4.615,13.528,13.528,0,0,1-13.242,0Z" fill="#fff"/>
      <path id="Path_4" data-name="Path 4" d="M473.982,444.859v39h17.367v1.385H472.6V444.859Z" fill="#fff"/>
      <path id="Path_5" data-name="Path 5" d="M515.621,448.566a20.394,20.394,0,0,1,8.672,16.66,19.532,19.532,0,0,1-2.712,10.126,19.776,19.776,0,0,1-7.385,7.24,20.552,20.552,0,0,1-10.328,2.654h-6.75V444.86h6.75A20.09,20.09,0,0,1,515.621,448.566Zm-2.233,32.815a18.644,18.644,0,0,0,6.866-6.751,18.063,18.063,0,0,0,2.539-9.4,18.532,18.532,0,0,0-2.539-9.492,18.978,18.978,0,0,0-6.924-6.922,18.509,18.509,0,0,0-9.519-2.569H498.5v37.618h5.308A18.911,18.911,0,0,0,513.388,481.381Z" fill="#fff"/>
      <path id="Path_6" data-name="Path 6" d="M550.949,485.246h-1.5l-2.307-7.212h-18.29l-2.25,7.212h-1.443l12.924-41.54h0Zm-12.866-36.925-8.712,28.271h17.366l-8.654-28.271Z" fill="#fff"/>
    </g>
    <path id="Path_7" data-name="Path 7" d="M370.97,447.85a18.195,18.195,0,1,0,18.2,18.19A18.2,18.2,0,0,0,370.97,447.85Zm9.92,21.87-1.81,3.1-7.17-5.05.81,8.73h-3.68l.84-8.73-7.2,5.05-1.84-3.1,7.98-3.73-7.98-3.71,1.84-3.13,7.2,5.05-.84-8.73h3.68l-.81,8.73,7.17-5.05,1.81,3.13-7.95,3.71Z" fill="#ffd400"/>
    <g id="Group_2" data-name="Group 2">
      <path id="Path_8" data-name="Path 8" d="M527.9,497.871a4.227,4.227,0,0,1-1.476-1.572,4.569,4.569,0,0,1,0-4.332,4.227,4.227,0,0,1,1.476-1.572,3.76,3.76,0,0,1,2.034-.582,3.929,3.929,0,0,1,2.172.66l-.168.252a3.593,3.593,0,0,0-2-.624,3.429,3.429,0,0,0-1.878.546,3.991,3.991,0,0,0-1.368,1.47,4.239,4.239,0,0,0,0,4.032,3.991,3.991,0,0,0,1.368,1.47,3.429,3.429,0,0,0,1.878.546,3.383,3.383,0,0,0,1.956-.6l.168.252a3.855,3.855,0,0,1-4.158.054Z" fill="none" stroke="#fff" stroke-miterlimit="10" stroke-width="0.5"/>
      <path id="Path_9" data-name="Path 9" d="M533.709,489.933v5.052h4.235v-5.052h.288v8.4h-.288V495.3h-4.235v3.036h-.288v-8.4Z" fill="none" stroke="#fff" stroke-miterlimit="10" stroke-width="0.5"/>
      <path id="Path_10" data-name="Path 10" d="M544.856,498.333h-.311l-.481-1.5h-3.8l-.468,1.5h-.3l2.689-8.64Zm-2.675-7.68-1.813,5.88h3.612Z" fill="none" stroke="#fff" stroke-miterlimit="10" stroke-width="0.5"/>
      <path id="Path_11" data-name="Path 11" d="M544.437,490.221v-.288h5.112v.288h-2.425v8.112h-.287v-8.112Z" fill="none" stroke="#fff" stroke-miterlimit="10" stroke-width="0.5"/>
    </g>
  </g>
</svg>
