<svg xmlns="http://www.w3.org/2000/svg" width="427.626" height="146.2" viewBox="0 0 427.626 146.2">
  <g id="Group_1" data-name="Group 1" transform="translate(-87.5 -261.8)">
    <path id="Path_1" data-name="Path 1" d="M216.8,378.5a71.1,71.1,0,1,1,0-87.2" fill="none" stroke="#fff" stroke-miterlimit="10" stroke-width="4"/>
    <circle id="Ellipse_1" data-name="Ellipse 1" cx="25.2" cy="25.2" r="25.2" transform="translate(135 310.4)" fill="#ffb600"/>
    <circle id="Ellipse_2" data-name="Ellipse 2" cx="8.637" cy="8.637" r="8.637" transform="translate(151.563 326.963)" fill="#fff"/>
    <circle id="Ellipse_3" data-name="Ellipse 3" cx="3.4" cy="3.4" r="3.4" transform="translate(144.4 320.4)" fill="#fff"/>
    <path id="Path_2" data-name="Path 2" d="M8.678-65.186h4.29v29.643H50.8V-65.186h4.29V0H50.8V-31.642H12.969V0H8.678ZM72.3-23.256v-41.93h4.29v43.734q0,8.825,5.095,13.8T95.951-2.682q9.264,0,14.334-4.8t5.071-13.968V-65.186h4.29v41.93q0,24.475-23.793,24.475-11.8,0-17.674-6.314T72.3-23.256Zm64.5-41.93h4.29V-3.9h33.056V0H136.808Zm63.187,0a70.919,70.919,0,0,1,13.408.975q12.043,3.072,17.893,11.189t5.851,20.063q0,12.481-6.363,21.062A28.111,28.111,0,0,1,213.4-.975,62.4,62.4,0,0,1,201.409,0H187.221V-65.186Zm32.569,32.325q0-10.775-4.851-17.771A24.022,24.022,0,0,0,213.7-60.116a33.81,33.81,0,0,0-6.338-.951q-3.51-.219-9.166-.219h-6.68V-3.9h7.021q5.314,0,8.41-.171a34.034,34.034,0,0,0,5.826-.8A23.277,23.277,0,0,0,227.3-14.383Q232.564-21.842,232.564-32.861ZM245.728,0,272.4-65.186h4.193L303.357,0h-4.729l-9.361-23.159H259.721L250.409,0Zm41.93-27.059-2.487-6.289q-8.142-20.234-10.482-26.767h-.2q-2,5.558-6.582,16.528-1.414,3.364-6.728,16.528Z" transform="translate(211.769 371.45)" fill="#fff"/>
  </g>
</svg>
